<?xml version="1.0" encoding="UTF-8"?>
<svg version="1.1" xmlns="http://www.w3.org/2000/svg" width="48" height="48">
<path d="M0 0 C8.66666667 0 17.33333333 0 26 0 C26 0.66 26 1.32 26 2 C26.66 2 27.32 2 28 2 C28 8.27 28 14.54 28 21 C25.16796875 21.22786458 22.3359375 21.45572917 19.50390625 21.68359375 C17.06359221 21.73211468 17.06359221 21.73211468 16 23 C13 23.125 13 23.125 10 23 C9.67 22.67 9.34 22.34 9 22 C7.15108054 21.76636119 5.29511969 21.58696365 3.4375 21.4375 C1.643125 21.293125 -0.15125 21.14875 -2 21 C-2 14.73 -2 8.46 -2 2 C-1.34 2 -0.68 2 0 2 C0 1.34 0 0.68 0 0 Z " fill="#DDD8D7" transform="translate(11,19)"/>
<path d="M0 0 C1.12535156 0.63808594 2.25070313 1.27617187 3.41015625 1.93359375 C4.55355469 2.57425781 5.69695313 3.21492187 6.875 3.875 C7.73222656 4.36871094 8.58945312 4.86242187 9.47265625 5.37109375 C9.47265625 7.35109375 9.47265625 9.33109375 9.47265625 11.37109375 C4.58646773 9.95667076 0.43239486 7.79850915 -3.96484375 5.296875 C-8.36200468 3.70826655 -11.51749404 4.91766621 -15.66796875 6.78125 C-16.6940625 7.32652344 -17.72015625 7.87179688 -18.77734375 8.43359375 C-24.33440257 11.37109375 -24.33440257 11.37109375 -26.52734375 11.37109375 C-26.52734375 9.39109375 -26.52734375 7.41109375 -26.52734375 5.37109375 C-24.01690164 3.99381638 -21.49696826 2.64493083 -18.96484375 1.30859375 C-18.26037109 0.91865234 -17.55589844 0.52871094 -16.83007812 0.12695312 C-10.53990564 -3.14857448 -6.56825537 -3.03318105 0 0 Z " fill="#FA4F4F" transform="translate(32.52734375,8.62890625)"/>
<path d="M0 0 C2.83203125 0.03255208 5.6640625 0.06510417 8.49609375 0.09765625 C8.49609375 5.70765625 8.49609375 11.31765625 8.49609375 17.09765625 C4.53609375 17.42765625 0.57609375 17.75765625 -3.50390625 18.09765625 C-3.53074937 15.28509344 -3.55066813 12.47278384 -3.56640625 9.66015625 C-3.57478516 8.85771484 -3.58316406 8.05527344 -3.59179688 7.22851562 C-3.60042055 5.18470404 -3.55618775 3.14081723 -3.50390625 1.09765625 C-2.50390625 0.09765625 -2.50390625 0.09765625 0 0 Z " fill="#E8E7E7" transform="translate(28.50390625,18.90234375)"/>
<path d="M0 0 C0.66 0 1.32 0 2 0 C2 5.61 2 11.22 2 17 C10.58 17 19.16 17 28 17 C28 11.39 28 5.78 28 0 C28.66 0 29.32 0 30 0 C30 6.27 30 12.54 30 19 C27.16796875 19.22786458 24.3359375 19.45572917 21.50390625 19.68359375 C19.06359221 19.73211468 19.06359221 19.73211468 18 21 C15 21.125 15 21.125 12 21 C11.67 20.67 11.34 20.34 11 20 C9.15108054 19.76636119 7.29511969 19.58696365 5.4375 19.4375 C3.643125 19.293125 1.84875 19.14875 0 19 C0 12.73 0 6.46 0 0 Z " fill="#F34F4F" transform="translate(9,21)"/>
</svg>
